<?xml version="1.0" encoding="UTF-8" standalone="no"?>
<!DOCTYPE svg PUBLIC "-//W3C//DTD SVG 1.1//EN" "http://www.w3.org/Graphics/SVG/1.1/DTD/svg11.dtd">
<svg width="100%" height="100%" viewBox="0 0 820 177" version="1.1" xmlns="http://www.w3.org/2000/svg" xmlns:xlink="http://www.w3.org/1999/xlink" xml:space="preserve" xmlns:serif="http://www.serif.com/" style="fill-rule:evenodd;clip-rule:evenodd;stroke-linejoin:round;stroke-miterlimit:2;">
    <g transform="matrix(1,0,0,1,-404.691034,-451.689182)">
        <g transform="matrix(1.68725,0,0,1.68725,-482.652001,224.01179)">
            <g transform="matrix(2,0,0,2,0,0)">
                <path d="M290.44,67.75C305.7,68.01 317.31,78.3 317.05,94.05C316.78,109.79 304.82,119.69 289.56,119.43C274.3,119.17 262.69,108.87 262.96,93.13C263.23,77.38 275.18,67.49 290.44,67.75ZM271.315,93.186C271.315,93.186 271.315,93.186 271.315,93.186C271.095,102.877 279.353,111.043 289.609,111.275C289.609,111.276 289.609,111.276 289.609,111.276C299.865,111.508 308.485,103.725 308.705,94.034C308.705,94.034 308.705,94.034 308.705,94.034C308.925,84.343 300.667,76.177 290.411,75.945C290.411,75.944 290.411,75.944 290.411,75.944C280.155,75.712 271.535,83.495 271.315,93.186Z" style="fill:white;fill-rule:nonzero;"/>
            </g>
            <g transform="matrix(2,0,0,2,0,0)">
                <path d="M393.01,93.593C393.01,93.593 393.01,93.593 393.01,93.593C393.035,79.236 405.289,67.444 420.156,67.47C420.156,67.47 420.156,67.47 420.156,67.47C435.022,67.496 447.235,79.331 447.21,93.687C447.21,93.687 447.21,93.687 447.21,93.687C447.185,108.044 434.931,119.836 420.064,119.81C420.064,119.81 420.064,119.81 420.064,119.81C405.198,119.784 392.985,107.949 393.01,93.593ZM401.583,93.346C401.414,102.994 409.657,111.08 419.843,111.257C419.843,111.257 419.843,111.257 419.843,111.257C430.029,111.435 438.549,103.642 438.717,93.994C438.886,84.346 430.643,76.26 420.457,76.083C420.457,76.083 420.457,76.083 420.457,76.083C410.271,75.905 401.751,83.698 401.583,93.346Z" style="fill:white;fill-rule:nonzero;"/>
            </g>
            <g transform="matrix(2,0,0,2,0,0)">
                <path d="M331.46,68.424L331.46,118.276C331.46,118.433 331.333,118.56 331.176,118.56L323.144,118.56C322.987,118.56 322.86,118.433 322.86,118.276L322.86,68.424C322.86,68.267 322.987,68.14 323.144,68.14L331.176,68.14C331.333,68.14 331.46,68.267 331.46,68.424Z" style="fill:white;"/>
            </g>
            <g transform="matrix(2,0,0,2,0,0)">
                <path d="M361,93.43L391.86,118.03C391.941,118.096 391.987,118.196 391.987,118.3C391.987,118.491 391.831,118.649 391.64,118.65L379.07,118.65C378.99,118.649 378.912,118.621 378.85,118.57L354.01,98.78C353.874,98.671 353.676,98.68 353.55,98.8L347.77,104.59C347.707,104.654 347.671,104.74 347.67,104.83L347.67,118.24C347.67,118.432 347.512,118.59 347.32,118.59L339.5,118.59C339.308,118.59 339.15,118.432 339.15,118.24L339.15,68.57C339.15,68.378 339.308,68.22 339.5,68.22L347.3,68.22C347.492,68.22 347.65,68.378 347.65,68.57L347.65,92.17C347.65,92.173 347.65,92.175 347.65,92.178C347.65,92.37 347.808,92.528 348,92.528C348.08,92.528 348.158,92.5 348.22,92.45L378.63,68.28C378.692,68.229 378.77,68.201 378.85,68.2L391.06,68.2C391.251,68.201 391.407,68.359 391.407,68.55C391.407,68.654 391.361,68.754 391.28,68.82L361,92.89C360.919,92.956 360.873,93.056 360.873,93.16C360.873,93.264 360.919,93.364 361,93.43Z" style="fill:white;fill-rule:nonzero;"/>
            </g>
            <g transform="matrix(2,0,0,2,0,0)">
                <path d="M452.42,68.18L501.25,68.18C501.431,68.18 501.58,68.329 501.58,68.51L501.58,76.35C501.58,76.509 501.449,76.64 501.29,76.64C488.95,76.787 475.523,76.89 461.01,76.95C460.797,76.95 460.64,77.053 460.54,77.26C460.353,77.64 460.463,77.903 460.87,78.05C473.183,82.45 484.973,86.767 496.24,91C499.24,92.133 501.477,93.63 502.95,95.49C506.55,100.06 506.66,107.14 503.78,112.04C500.7,117.3 495.36,118.83 488.79,118.73C483.377,118.65 470.82,118.663 451.12,118.77C451.117,118.77 451.113,118.77 451.11,118.77C450.797,118.77 450.54,118.513 450.54,118.2C450.54,118.2 450.54,110.39 450.54,110.39C450.54,110.094 450.784,109.85 451.08,109.85C464.267,109.837 476.917,109.843 489.03,109.87C492.03,109.877 494.06,109.437 495.12,108.55C496.833,107.117 497.47,105.16 497.03,102.68C496.971,102.351 496.841,102.037 496.65,101.76C495.777,100.5 494.5,99.547 492.82,98.9C488.947,97.413 476.543,92.937 455.61,85.47C454.977,85.243 453.84,84.7 452.2,83.84C451.868,83.668 451.659,83.324 451.66,82.95L451.66,68.94C451.66,68.523 452.003,68.18 452.42,68.18Z" style="fill:white;fill-rule:nonzero;"/>
            </g>
        </g>
    </g>
</svg>
